<svg width="1920" height="135" viewBox="0 0 1920 135" fill="none" xmlns="http://www.w3.org/2000/svg">
<g clip-path="url(#clip0_2101_1085)">
<path d="M1687.48 2.33271C1606.65 -4.49759 1526.06 5.6603 1445.22 15.9799C1364.37 26.2994 1283.55 31.4457 1202.72 28.8726C1121.89 26.2994 1041.06 18.553 960.229 20.2235C879.398 22.4195 798.566 35.3256 717.735 41.7787C637.032 48.2297 555.943 48.2297 475.241 41.7787C394.409 35.3391 313.578 22.4329 232.746 15.9933C151.915 9.55371 70.8546 9.54023 30.4389 9.54023H-9.97681V134.83H1929.98V41.7248C1849.24 31.3649 1768.22 8.39511 1687.48 2.33271Z" fill="#F0F8FE"/>
</g>
<defs>
<clipPath id="clip0_2101_1085">
<rect width="1940" height="134.72" fill="white" transform="translate(-10 0.109863)"/>
</clipPath>
</defs>
</svg>
