<svg width="10" height="10" viewBox="0 0 10 10" fill="none" xmlns="http://www.w3.org/2000/svg">
<path d="M8.97729 4.29883C8.95386 4.25195 8.92749 4.20801 8.89819 4.16699C8.8689 4.12598 8.84253 4.08789 8.81909 4.05273L5.05737 0.291016C4.98706 0.232422 4.90796 0.182617 4.82007 0.141602C4.73218 0.100586 4.6355 0.0800781 4.53003 0.0800781C4.31909 0.0800781 4.14038 0.15332 3.9939 0.299805C3.84741 0.446289 3.77417 0.625 3.77417 0.835938C3.77417 0.941406 3.79468 1.03809 3.83569 1.12598C3.87671 1.21387 3.93237 1.29297 4.00269 1.36328L6.4812 3.82422H0.785889C0.574951 3.82422 0.39624 3.89746 0.249756 4.04395C0.103271 4.19043 0.0300293 4.36914 0.0300293 4.58008C0.0300293 4.79102 0.103271 4.96973 0.249756 5.11621C0.39624 5.2627 0.574951 5.33594 0.785889 5.33594H6.4812L4.00269 7.79688C3.93237 7.86719 3.87671 7.94629 3.83569 8.03418C3.79468 8.12207 3.77417 8.21875 3.77417 8.32422C3.77417 8.42969 3.79468 8.5293 3.83569 8.62305C3.87671 8.7168 3.93237 8.79883 4.00269 8.86914C4.073 8.92773 4.1521 8.97754 4.23999 9.01855C4.32788 9.05957 4.42456 9.08008 4.53003 9.08008C4.6355 9.08008 4.73218 9.05957 4.82007 9.01855C4.90796 8.97754 4.98706 8.92773 5.05737 8.86914L8.81909 5.10742C8.84253 5.07227 8.8689 5.03418 8.89819 4.99316C8.92749 4.95215 8.948 4.91406 8.95972 4.87891L8.97729 4.86133C8.98901 4.82617 9.00073 4.78223 9.01245 4.72949C9.02417 4.67676 9.03003 4.62695 9.03003 4.58008C9.03003 4.5332 9.02417 4.4834 9.01245 4.43066C9.00073 4.37793 8.98315 4.33398 8.95972 4.29883H8.97729Z" fill="#5EB9F0"/>
</svg>
